<svg id="Layer_1" data-name="Layer 1" xmlns="http://www.w3.org/2000/svg" viewBox="0 0 50.47 43.71"><defs><style>.cls-1{fill:#fff;fill-rule:evenodd;}</style></defs><polygon class="cls-1" points="21.9 8.9 10.28 8.9 11.7 11.36 17.75 21.86 21.9 29.03 21.9 24.58 16.7 15.57 21.9 15.57 21.9 13.35 15.41 13.35 14.13 11.12 21.9 11.12 21.9 8.9 21.9 8.9"/><polygon class="cls-1" points="28.57 8.9 40.2 8.9 38.77 11.36 32.72 21.86 28.57 29.03 28.57 24.58 33.78 15.57 28.57 15.57 28.57 13.35 35.06 13.35 36.34 11.12 28.57 11.12 28.57 8.9 28.57 8.9"/><polygon class="cls-1" points="24.12 4.45 7.71 4.45 8.99 6.67 24.12 6.67 24.12 28.44 24.12 31.62 24.12 32.89 25.24 34.81 26.35 32.89 26.35 31.62 26.35 28.44 26.35 6.67 41.48 6.67 42.77 4.45 26.35 4.45 24.12 4.45 24.12 4.45"/><path class="cls-1" d="M913.38,531.5h42.77l-21.39,37-21.38-37ZM960,529.28H909.53L934.76,573,960,529.28Z" transform="translate(-909.53 -529.28)"/></svg>