<svg id="Layer_1" data-name="Layer 1" xmlns="http://www.w3.org/2000/svg" viewBox="0 0 100.94 87.42"><defs><style>.cls-1{fill:#fff;fill-rule:evenodd;}</style></defs><polygon class="cls-1" points="48.25 8.9 15.41 8.9 17.98 13.35 48.25 13.35 48.25 56.87 48.25 63.25 48.25 65.77 50.47 69.62 52.7 65.77 52.7 63.25 52.7 56.87 52.7 13.35 82.96 13.35 85.53 8.9 52.7 8.9 48.25 8.9 48.25 8.9"/><path class="cls-1" d="M917.23,490h85.54L960,564.09,917.23,490Zm93.24-4.45H909.53L960,573l50.47-87.42Z" transform="translate(-909.53 -485.57)"/><polygon class="cls-1" points="43.8 58.06 43.8 17.8 20.55 17.8 23.08 22.18 40.03 22.25 40.03 26.7 25.62 26.59 28.16 30.98 40.03 31.14 40.4 52.19 43.8 58.06"/><polygon class="cls-1" points="57.15 17.8 57.15 58.06 61.37 50.75 61.37 31.14 72.68 31.16 75.25 26.72 61.14 26.7 61.03 22.25 77.93 22.06 80.39 17.8 57.15 17.8"/></svg>